PathFileType	4	(X/Y/Z)	\\147.46.242.158\로컬 디스크 (e)\MOCAP Data\Iguana Capture\iguana\Project 2\Capture day 7\Session 2\Take13.trc
DataRate	CameraRate	NumFrames	NumMarkers	Units	OrigDataRate	OrigDataStartFrame	OrigNumFrames
120.0	120.0	13	23	mm	120.0	208	7542
Frame#	Time	ana:head1			ana:head2			ana:bone1			ana:bone2			ana:bone3			ana:tail1			ana:tail2			ana:tail3			ana:tail4			ana:Rforefoot1			ana:Rforefoot2			ana:Rforefoot3			ana:Lforefoot1			ana:Lforefoot2			ana:Lforefoot3			ana:RhindLeg1			ana:RhindLeg2			ana:RhindLeg3			ana:RhindLeg4			ana:LhindLeg1			ana:LhindLeg2			ana:LhindLeg3			ana:LhindLeg4			
		X1	Y1	Z1	X2	Y2	Z2	X3	Y3	Z3	X4	Y4	Z4	X5	Y5	Z5	X6	Y6	Z6	X7	Y7	Z7	X8	Y8	Z8	X9	Y9	Z9	X10	Y10	Z10	X11	Y11	Z11	X12	Y12	Z12	X13	Y13	Z13	X14	Y14	Z14	X15	Y15	Z15	X16	Y16	Z16	X17	Y17	Z17	X18	Y18	Z18	X19	Y19	Z19	X20	Y20	Z20	X21	Y21	Z21	X22	Y22	Z22	X23	Y23	Z23	

4627	38.550	408.12357	164.21570	54.40212	408.54089	174.62589	54.27473	410.34134	195.93025	44.26550	409.38306	223.80948	39.43761	400.81662	255.70512	31.06743	388.22855	283.68982	22.47485	370.65671	316.22919	13.04149	348.87686	351.24326	6.71976	327.57321	386.93585	4.05959	395.80090	197.04474	27.30866	391.79007	210.42052	20.55841	400.28772	212.78076	3.59844	423.35110	190.09898	25.86422	432.45648	191.03896	16.54030	428.51791	183.28726	1.45090	392.05313	250.52292	24.79908	381.34396	234.42915	21.19038	374.55252	238.88049	1.95266	374.75327	229.40288	3.79936	407.75528	261.77539	24.09409	419.48373	275.35007	18.44816	422.04434	295.97736	9.00115	431.72748	292.35825	3.70076	
4628	38.558	408.12683	163.79425	54.51640	408.51886	174.26848	54.35275	410.20575	195.47746	44.32064	409.06458	223.43956	39.46635	400.61218	255.41081	31.08558	388.23129	283.40387	22.45949	370.75333	315.87714	13.05829	349.01129	350.93576	6.70950	327.76105	386.69101	4.05082	395.62354	196.55652	27.40456	391.71945	210.00972	20.69358	400.31476	212.54732	3.78529	423.25812	189.79593	25.96963	432.33948	190.91646	16.59510	428.53064	183.24001	1.47778	391.88306	250.21365	24.81512	381.09302	234.16330	21.20019	374.58914	238.95267	1.90341	374.65674	229.29442	3.82163	407.63052	261.36597	24.13513	419.32538	274.95032	18.59095	422.06223	295.73587	9.30440	431.71320	292.21097	3.84694	
4629	38.567	408.10159	163.42067	54.66827	408.51514	173.94533	54.41846	410.07166	195.10492	44.35162	408.75867	223.08948	39.49158	400.47009	255.10699	31.13087	388.22974	283.14044	22.45726	370.84808	315.52734	13.06833	349.14752	350.64017	6.67304	327.95084	386.47513	4.06269	395.47778	196.08893	27.49352	391.64346	209.63185	20.80217	400.34406	212.33478	3.95245	423.15305	189.48898	26.06408	432.22293	190.79575	16.65251	428.54703	183.20012	1.51706	391.70529	249.88002	24.86007	380.82004	233.96863	21.18856	374.61588	238.55641	1.86701	374.69843	228.97098	3.79698	407.45532	260.96707	24.11026	419.20627	274.56708	18.73050	422.08365	295.48285	9.59935	431.72458	292.05054	3.99348	
4630	38.575	408.07877	163.00249	54.85532	408.48969	173.64795	54.47583	409.95215	194.72153	44.40451	408.48218	222.74385	39.51226	400.35422	254.82893	31.17524	388.22781	282.89661	22.45903	370.94034	315.20856	13.06137	349.27551	350.38257	6.62307	328.13626	386.29749	4.08503	395.32108	195.64696	27.62120	391.52600	209.25987	20.91521	400.41205	212.16940	4.14283	423.05029	189.18419	26.14280	432.10535	190.67899	16.72294	428.55191	183.16551	1.55064	391.54385	249.53313	24.91805	380.53427	233.85628	21.14964	374.63321	238.23575	1.84107	374.74762	228.76297	3.66419	407.28122	260.64114	24.11133	419.13071	274.18805	18.85476	422.13327	295.22095	9.91072	431.76709	291.88629	4.14425	
4631	38.583	408.03226	162.62979	55.04913	408.45706	173.36928	54.53408	409.83774	194.34729	44.45575	408.26227	222.39662	39.56205	400.27118	254.54628	31.24005	388.22684	282.69391	22.47439	371.01407	314.91180	13.02657	349.39755	350.13513	6.57271	328.31424	386.13892	4.10673	395.19604	195.22792	27.76674	391.37436	208.89641	21.04717	400.45407	212.02766	4.30911	422.95892	188.89908	26.20868	431.99045	190.56259	16.79550	428.55463	183.13786	1.57312	391.38779	249.20505	24.98034	380.24832	233.76103	21.09499	374.56595	237.94226	1.91975	374.79260	228.60054	3.53817	407.15710	260.36450	24.17774	419.13370	273.83420	19.00342	422.15048	294.90591	10.16882	431.84708	291.71637	4.28920	
4632	38.592	407.96472	162.26797	55.19780	408.38547	173.08910	54.60587	409.70694	193.95593	44.53333	408.09909	222.05844	39.63923	400.19522	254.26332	31.27551	388.23248	282.49002	22.49145	371.07791	314.62537	12.96067	349.52905	349.87122	6.53347	328.47754	385.98819	4.13181	395.00681	194.79259	27.98706	391.18985	208.52620	21.20794	400.49509	211.88155	4.50462	422.88416	188.64896	26.26620	431.88416	190.45061	16.87070	428.53210	183.17685	1.56795	391.25348	248.85570	25.04013	379.99069	233.63565	21.02896	374.47525	237.86386	2.00847	374.83521	228.72653	3.38965	407.05841	260.09912	24.27668	419.17282	273.50153	19.15408	422.17639	294.52316	10.39454	431.93948	291.54224	4.41237	
4633	38.600	407.90439	161.90753	55.32986	408.25479	172.79831	54.70259	409.57520	193.58348	44.62334	407.95898	221.71982	39.73230	399.99554	254.01721	31.27769	388.22931	282.31293	22.51015	371.12384	314.39096	12.90880	349.64233	349.67902	6.52627	328.62201	385.83551	4.14201	394.83771	194.36530	28.16607	390.98511	208.13721	21.41910	400.54471	211.74306	4.70848	422.81195	188.42998	26.30013	431.77573	190.34039	16.94062	428.48184	183.26863	1.53567	391.09891	248.54898	25.06302	379.75986	233.45410	20.96437	374.36731	238.01534	2.12330	374.85779	228.98445	3.36588	407.00491	259.83228	24.39034	419.21448	273.17419	19.31929	422.21271	294.11295	10.59618	432.03906	291.36902	4.52671	
4634	38.608	407.80829	161.60667	55.44473	408.09189	172.48859	54.79971	409.43796	193.22798	44.71518	407.84378	221.39847	39.84160	399.74536	253.78104	31.32423	388.23807	282.11154	22.51985	371.17963	314.14713	12.86530	349.76880	349.45261	6.51913	328.75357	385.67776	4.13099	394.68283	193.96495	28.32309	390.76385	207.73598	21.65149	400.58902	211.60086	4.90697	422.74026	188.23381	26.31680	431.67645	190.23975	17.00352	428.42560	183.39729	1.49219	390.93942	248.32498	25.07093	379.56039	233.24109	20.91975	374.30164	238.35088	2.15330	374.83911	229.33627	3.32891	406.97614	259.55063	24.51225	419.18658	272.84378	19.45775	422.23859	293.68271	10.75494	432.09116	291.21066	4.59326	
4635	38.617	407.69165	161.31946	55.51149	407.90842	172.16240	54.89560	409.31516	192.90213	44.78726	407.70813	221.09789	39.92847	399.48706	253.56476	31.37042	388.26544	281.88535	22.51507	371.23502	313.94061	12.83048	349.88257	349.24847	6.52011	328.88651	385.50952	4.12414	394.54654	193.57619	28.45614	390.53799	207.30461	21.92972	400.54855	211.46049	4.99164	422.66617	188.01370	26.34625	431.59061	190.14862	17.06006	428.36578	183.54495	1.44259	390.77725	248.12610	25.06539	379.37729	233.05927	20.88959	374.24078	238.74799	2.17337	374.81546	229.62723	3.28764	406.94049	259.22385	24.55956	419.08875	272.49643	19.55536	422.26669	293.28839	10.91141	432.12811	291.05136	4.67568	
4636	38.625	407.56833	161.02600	55.57789	407.76419	171.84943	54.99126	409.20755	192.57870	44.82830	407.54575	220.80600	39.98906	399.19916	253.27066	31.46687	388.31940	281.63449	22.47804	371.31003	313.75748	12.81371	349.98563	349.05466	6.50452	329.02747	385.34766	4.11111	394.44067	193.20073	28.55171	390.29553	206.84727	22.23613	400.33090	211.29279	4.91955	422.58554	187.75961	26.39961	431.51477	190.05898	17.12313	428.30817	183.67749	1.39347	390.61057	248.03079	25.05619	379.17770	232.94963	20.87368	374.21671	239.08092	2.17642	374.74692	229.77026	3.24043	406.90436	258.89105	24.59677	418.92560	272.13434	19.59988	422.29471	292.93848	11.08820	432.13416	290.88898	4.79878	
4637	38.633	407.43677	160.71901	55.64453	407.65137	171.53870	55.07449	409.11716	192.27213	44.82839	407.39429	220.50986	40.03126	398.97293	252.94983	31.62255	388.40817	281.35648	22.42296	371.39417	313.60791	12.80940	350.08920	348.85410	6.47813	329.16248	385.16751	4.12043	394.39902	192.80455	28.63356	390.05032	206.37132	22.55822	399.82529	211.05045	4.65330	422.51605	187.48384	26.48699	431.44843	189.96429	17.18692	428.26785	183.77242	1.36271	390.44025	247.99094	25.05767	378.95474	232.90297	20.85240	374.18994	239.11549	2.19003	374.67566	229.61917	3.19059	406.84909	258.56747	24.63144	418.74979	271.76282	19.61423	422.33115	292.59122	11.26824	432.14493	290.71036	4.95592	
4638	38.642	407.30521	160.39146	55.69776	407.58121	171.23557	55.13726	409.05206	191.97894	44.84473	407.25156	220.20323	40.03833	398.76627	252.56618	31.76769	388.52780	281.04559	22.36096	371.50992	313.45490	12.80758	350.18173	348.70447	6.44982	329.29318	384.97903	4.14493	394.35583	192.37799	28.72819	389.78400	205.86459	22.91233	399.05936	210.75162	4.27273	422.45480	187.19221	26.59245	431.39093	189.85248	17.26731	428.23499	183.82620	1.34032	390.29993	247.95041	25.04841	378.70953	232.91777	20.81126	374.12155	239.22295	2.22355	374.63611	229.51312	3.13027	406.77521	258.26315	24.66899	418.59378	271.38477	19.62590	422.38345	292.24429	11.48658	432.15906	290.52176	5.13701	
4639	38.650	407.22452	160.07156	55.77950	407.55832	170.93922	55.18328	408.99100	191.68773	44.89404	407.11172	219.87033	40.05122	398.66522	252.17296	31.81757	388.65701	280.76331	22.31050	371.64929	313.29086	12.79253	350.28088	348.56607	6.42839	329.42126	384.77161	4.17360	394.31735	191.94112	28.82507	389.51715	205.34496	23.27740	398.02225	210.36549	3.84443	422.39746	186.91309	26.70173	431.33545	189.72258	17.35320	428.21878	183.81805	1.33502	390.19809	247.80151	25.03044	378.44904	232.89183	20.75925	374.01193	239.26372	2.33702	374.59076	229.32019	3.14571	406.71057	257.94922	24.72584	418.46945	271.00336	19.66281	422.44046	291.91501	11.70188	432.17258	290.34225	5.31620	
